<?xml version="1.0" encoding="us-ascii" standalone="no"?><svg xmlns="http://www.w3.org/2000/svg" xmlns:xlink="http://www.w3.org/1999/xlink" contentStyleType="text/css" height="242px" preserveAspectRatio="none" style="width:133px;height:242px;background:#FFFFFF;" version="1.1" viewBox="0 0 133 242" width="133px" zoomAndPan="magnify"><defs/><g><ellipse cx="66.5" cy="20" fill="#222222" rx="10" ry="10" style="stroke:#222222;stroke-width:1.0;"/><rect fill="#F1F1F1" height="33.9688" rx="12.5" ry="12.5" style="stroke:#181818;stroke-width:0.5;" width="101" x="16" y="50"/><text fill="#000000" font-family="sans-serif" font-size="12" lengthAdjust="spacing" textLength="77" x="30" y="71.1387">&#1055;&#1088;&#1080;&#1074;&#1077;&#1090; &#1041;&#1086;&#1073;</text><rect fill="#F1F1F1" height="33.9688" rx="12.5" ry="12.5" style="stroke:#181818;stroke-width:0.5;" width="108" x="12.5" y="103.9688"/><text fill="#000000" font-family="sans-serif" font-size="12" lengthAdjust="spacing" textLength="84" x="26.5" y="125.1074">&#1055;&#1088;&#1080;&#1074;&#1077;&#1090; &#1069;&#1083;&#1080;&#1089;</text><rect fill="#F1F1F1" height="33.9688" rx="12.5" ry="12.5" style="stroke:#181818;stroke-width:0.5;" width="111" x="11" y="157.9375"/><text fill="#000000" font-family="sans-serif" font-size="12" lengthAdjust="spacing" textLength="87" x="25" y="179.0762">&#1101;&#1090;&#1086; &#1089; &#1076;&#1086;&#1082;&#1077;&#1088;&#1072;</text><ellipse cx="66.5" cy="221.9063" fill="none" rx="10" ry="10" style="stroke:#222222;stroke-width:1.5;"/><line style="stroke:#222222;stroke-width:2.5;" x1="60.3128" x2="72.6872" y1="215.7191" y2="228.0934"/><line style="stroke:#222222;stroke-width:2.5;" x1="72.6872" x2="60.3128" y1="215.7191" y2="228.0934"/><line style="stroke:#181818;stroke-width:1.0;" x1="66.5" x2="66.5" y1="30" y2="50"/><polygon fill="#181818" points="62.5,40,66.5,50,70.5,40,66.5,44" style="stroke:#181818;stroke-width:1.0;"/><line style="stroke:#181818;stroke-width:1.0;" x1="66.5" x2="66.5" y1="83.9688" y2="103.9688"/><polygon fill="#181818" points="62.5,93.9688,66.5,103.9688,70.5,93.9688,66.5,97.9688" style="stroke:#181818;stroke-width:1.0;"/><line style="stroke:#181818;stroke-width:1.0;" x1="66.5" x2="66.5" y1="137.9375" y2="157.9375"/><polygon fill="#181818" points="62.5,147.9375,66.5,157.9375,70.5,147.9375,66.5,151.9375" style="stroke:#181818;stroke-width:1.0;"/><line style="stroke:#181818;stroke-width:1.0;" x1="66.5" x2="66.5" y1="191.9063" y2="211.9063"/><polygon fill="#181818" points="62.5,201.9063,66.5,211.9063,70.5,201.9063,66.5,205.9063" style="stroke:#181818;stroke-width:1.0;"/><!--SRC=[Aov9B2hXibAuCFzYmuKT5pPTs7gnIU72n0lxBcoqnX1UUs7tXHqN6q4I5tilDbtOft2nKU725g3YNK053HSsM7EbvgK00000]--></g></svg>